{
	"patcher" : 	{
		"fileversion" : 1,
		"appversion" : 		{
			"major" : 8,
			"minor" : 3,
			"revision" : 0,
			"architecture" : "x64",
			"modernui" : 1
		}
,
		"classnamespace" : "box",
		"rect" : [ 34.0, 77.0, 1556.0, 921.0 ],
		"bglocked" : 0,
		"openinpresentation" : 0,
		"default_fontsize" : 12.0,
		"default_fontface" : 0,
		"default_fontname" : "Arial",
		"gridonopen" : 1,
		"gridsize" : [ 15.0, 15.0 ],
		"gridsnaponopen" : 1,
		"objectsnaponopen" : 1,
		"statusbarvisible" : 2,
		"toolbarvisible" : 1,
		"lefttoolbarpinned" : 0,
		"toptoolbarpinned" : 0,
		"righttoolbarpinned" : 0,
		"bottomtoolbarpinned" : 0,
		"toolbars_unpinned_last_save" : 0,
		"tallnewobj" : 0,
		"boxanimatetime" : 200,
		"enablehscroll" : 1,
		"enablevscroll" : 1,
		"devicewidth" : 0.0,
		"description" : "",
		"digest" : "",
		"tags" : "",
		"style" : "",
		"subpatcher_template" : "",
		"assistshowspatchername" : 0,
		"boxes" : [ 			{
				"box" : 				{
					"id" : "obj-13",
					"maxclass" : "newobj",
					"numinlets" : 1,
					"numoutlets" : 1,
					"outlettype" : [ "bang" ],
					"patching_rect" : [ 383.0, 43.0, 58.0, 22.0 ],
					"text" : "loadbang"
				}

			}
, 			{
				"box" : 				{
					"id" : "obj-12",
					"maxclass" : "message",
					"numinlets" : 2,
					"numoutlets" : 1,
					"outlettype" : [ "" ],
					"patching_rect" : [ 383.0, 87.0, 29.5, 22.0 ],
					"text" : "100"
				}

			}
, 			{
				"box" : 				{
					"id" : "obj-8",
					"maxclass" : "message",
					"numinlets" : 2,
					"numoutlets" : 1,
					"outlettype" : [ "" ],
					"patching_rect" : [ 383.0, 119.0, 68.0, 22.0 ],
					"presentation_linecount" : 2,
					"text" : "Dry/Wet $1"
				}

			}
, 			{
				"box" : 				{
					"comment" : "Transpose",
					"id" : "obj-7",
					"index" : 0,
					"maxclass" : "inlet",
					"numinlets" : 0,
					"numoutlets" : 1,
					"outlettype" : [ "" ],
					"patching_rect" : [ 278.0, 23.0, 30.0, 30.0 ]
				}

			}
, 			{
				"box" : 				{
					"id" : "obj-34",
					"maxclass" : "message",
					"numinlets" : 2,
					"numoutlets" : 1,
					"outlettype" : [ "" ],
					"patching_rect" : [ 278.0, 119.0, 62.0, 22.0 ],
					"text" : "Transp $1"
				}

			}
, 			{
				"box" : 				{
					"comment" : "Ch2 Out",
					"id" : "obj-6",
					"index" : 0,
					"maxclass" : "outlet",
					"numinlets" : 1,
					"numoutlets" : 0,
					"patching_rect" : [ 161.333333333333314, 437.0, 30.0, 30.0 ]
				}

			}
, 			{
				"box" : 				{
					"comment" : "Ch1 Out",
					"id" : "obj-5",
					"index" : 0,
					"maxclass" : "outlet",
					"numinlets" : 1,
					"numoutlets" : 0,
					"patching_rect" : [ 86.0, 437.0, 30.0, 30.0 ]
				}

			}
, 			{
				"box" : 				{
					"comment" : "Ch2 In",
					"id" : "obj-4",
					"index" : 0,
					"maxclass" : "inlet",
					"numinlets" : 0,
					"numoutlets" : 1,
					"outlettype" : [ "" ],
					"patching_rect" : [ 199.0, 23.0, 30.0, 30.0 ]
				}

			}
, 			{
				"box" : 				{
					"comment" : "Ch1 In",
					"id" : "obj-3",
					"index" : 0,
					"maxclass" : "inlet",
					"numinlets" : 0,
					"numoutlets" : 1,
					"outlettype" : [ "" ],
					"patching_rect" : [ 86.0, 23.0, 30.0, 30.0 ]
				}

			}
, 			{
				"box" : 				{
					"autosave" : 1,
					"bgmode" : 1,
					"border" : 0,
					"clickthrough" : 0,
					"enablehscroll" : 0,
					"enablevscroll" : 0,
					"id" : "obj-1",
					"linecount" : 3,
					"lockeddragscroll" : 0,
					"lockedsize" : 0,
					"maxclass" : "newobj",
					"numinlets" : 3,
					"numoutlets" : 4,
					"offset" : [ 0.0, 0.0 ],
					"outlettype" : [ "signal", "signal", "", "" ],
					"patching_rect" : [ 86.0, 210.0, 245.0, 193.0 ],
					"presentation_linecount" : 5,
					"saved_attribute_attributes" : 					{
						"valueof" : 						{
							"parameter_invisible" : 1,
							"parameter_longname" : "amxd~",
							"parameter_shortname" : "amxd~",
							"parameter_type" : 3
						}

					}
,
					"saved_object_attributes" : 					{
						"parameter_enable" : 1,
						"patchername" : "Simple Pitch Shifter.amxd",
						"patchername_fallback" : "C74:/packages/Max for Live/patchers/Max Audio Effect/Simple Pitch Shifter.amxd"
					}
,
					"snapshot" : 					{
						"filetype" : "C74Snapshot",
						"version" : 2,
						"minorversion" : 0,
						"name" : "snapshotlist",
						"origin" : "max~",
						"type" : "list",
						"subtype" : "Undefined",
						"embed" : 1,
						"snapshot" : 						{
							"name" : "Simple Pitch Shifter.amxd",
							"origname" : "C74:/packages/Max for Live/patchers/Max Audio Effect/Simple Pitch Shifter.amxd",
							"valuedictionary" : 							{
								"parameter_values" : 								{
									"Dry/Wet" : 100.0,
									"Gain" : 0.0,
									"Glide" : 2040.285449065916737,
									"Latency" : 1.0,
									"Quality" : 0.0,
									"Transp" : 0.0
								}

							}

						}
,
						"snapshotlist" : 						{
							"current_snapshot" : 0,
							"entries" : [ 								{
									"filetype" : "C74Snapshot",
									"version" : 2,
									"minorversion" : 0,
									"name" : "Simple Pitch Shifter.amxd",
									"origin" : "Simple Pitch Shifter.amxd",
									"type" : "amxd",
									"subtype" : "Undefined",
									"embed" : 0,
									"snapshot" : 									{
										"name" : "Simple Pitch Shifter.amxd",
										"origname" : "C74:/packages/Max for Live/patchers/Max Audio Effect/Simple Pitch Shifter.amxd",
										"valuedictionary" : 										{
											"parameter_values" : 											{
												"Dry/Wet" : 100.0,
												"Gain" : 0.0,
												"Glide" : 2040.285449065916737,
												"Latency" : 1.0,
												"Quality" : 0.0,
												"Transp" : 0.0
											}

										}

									}
,
									"fileref" : 									{
										"name" : "Simple Pitch Shifter.amxd",
										"filename" : "Simple Pitch Shifter.amxd.maxsnap",
										"filepath" : "~/OneDrive/Documents/Max 8/Snapshots",
										"filepos" : -1,
										"snapshotfileid" : "95b4ea7511537d786e956352ea36b011"
									}

								}
 ]
						}

					}
,
					"text" : "amxd~ \"C74:/packages/Max for Live/patchers/Max Audio Effect/Simple Pitch Shifter.amxd\"",
					"varname" : "amxd~",
					"viewvisibility" : 1
				}

			}
 ],
		"lines" : [ 			{
				"patchline" : 				{
					"destination" : [ "obj-5", 0 ],
					"source" : [ "obj-1", 0 ]
				}

			}
, 			{
				"patchline" : 				{
					"destination" : [ "obj-6", 0 ],
					"source" : [ "obj-1", 1 ]
				}

			}
, 			{
				"patchline" : 				{
					"destination" : [ "obj-8", 0 ],
					"source" : [ "obj-12", 0 ]
				}

			}
, 			{
				"patchline" : 				{
					"destination" : [ "obj-12", 0 ],
					"source" : [ "obj-13", 0 ]
				}

			}
, 			{
				"patchline" : 				{
					"destination" : [ "obj-1", 0 ],
					"source" : [ "obj-3", 0 ]
				}

			}
, 			{
				"patchline" : 				{
					"destination" : [ "obj-1", 0 ],
					"source" : [ "obj-34", 0 ]
				}

			}
, 			{
				"patchline" : 				{
					"destination" : [ "obj-1", 1 ],
					"source" : [ "obj-4", 0 ]
				}

			}
, 			{
				"patchline" : 				{
					"destination" : [ "obj-34", 0 ],
					"source" : [ "obj-7", 0 ]
				}

			}
, 			{
				"patchline" : 				{
					"destination" : [ "obj-1", 0 ],
					"source" : [ "obj-8", 0 ]
				}

			}
 ],
		"parameters" : 		{
			"obj-1" : [ "amxd~", "amxd~", 0 ],
			"parameterbanks" : 			{
				"0" : 				{
					"index" : 0,
					"name" : "",
					"parameters" : [ "-", "-", "-", "-", "-", "-", "-", "-" ]
				}

			}
,
			"inherited_shortname" : 1
		}
,
		"dependency_cache" : [ 			{
				"name" : "Simple Pitch Shifter.amxd",
				"bootpath" : "C74:/packages/Max for Live/patchers/Max Audio Effect",
				"type" : "amxd",
				"implicit" : 1
			}
, 			{
				"name" : "Simple Pitch Shifter.amxd.maxsnap",
				"bootpath" : "~/OneDrive/Documents/Max 8/Snapshots",
				"patcherrelativepath" : "../../../Max 8/Snapshots",
				"type" : "mx@s",
				"implicit" : 1
			}
 ],
		"autosave" : 0
	}

}
